<svg xmlns="http://www.w3.org/2000/svg" width="24" height="24" viewBox="0 0 24 24">
  <g id="Group_28759" data-name="Group 28759" transform="translate(-128 -1536)">
    <rect id="Rectangle_4669" data-name="Rectangle 4669" width="24" height="24" transform="translate(128 1536)" fill="none"/>
    <g id="Group_28725" data-name="Group 28725" transform="translate(131 1539)">
      <g id="Group_28724" data-name="Group 28724">
        <path id="Path_20504" data-name="Path 20504" d="M9,0A9,9,0,0,0,2.063,14.729s0,.01.007.014a9,9,0,0,0,3.4,2.536l.045.02c.105.044.212.086.319.126l.127.047q.138.05.278.094l.18.056q.124.037.249.071c.073.02.147.038.221.056s.15.036.225.052.169.034.254.05c.068.013.137.026.206.037.095.015.19.027.285.04.062.008.123.017.185.023.108.011.217.02.326.027.051,0,.1.009.152.012Q8.758,18,9,18c.162,0,.323,0,.483-.013.051,0,.1-.008.152-.012.109-.008.218-.016.326-.027.062-.007.123-.016.185-.023.1-.012.191-.024.285-.04.069-.011.137-.024.206-.037.085-.016.17-.032.254-.05s.15-.034.225-.052.148-.036.221-.056.166-.046.249-.071l.18-.056q.14-.045.278-.094l.127-.047c.107-.04.213-.082.319-.126l.045-.02a9,9,0,0,0,3.4-2.536s0-.01.007-.014A9,9,0,0,0,9,0ZM12.65,16.569l-.013.007c-.107.052-.216.1-.326.148l-.074.032q-.144.06-.291.115l-.123.045c-.087.031-.174.061-.262.089l-.164.05c-.078.023-.156.046-.236.067s-.134.034-.2.05-.141.034-.212.049-.156.031-.234.045-.126.024-.19.034c-.088.014-.177.025-.265.036-.056.007-.112.016-.169.022-.1.011-.2.018-.3.025-.045,0-.09.008-.136.011Q9.226,17.4,9,17.4t-.446-.012c-.046,0-.091-.007-.136-.011-.1-.007-.2-.014-.3-.025-.057-.006-.113-.014-.169-.022-.089-.011-.177-.022-.265-.036-.064-.01-.127-.023-.19-.034-.078-.014-.157-.029-.234-.045s-.142-.032-.212-.049-.134-.032-.2-.05-.158-.044-.236-.067L6.443,17q-.132-.042-.262-.089l-.123-.045q-.147-.055-.291-.115l-.074-.032c-.11-.047-.219-.1-.326-.148l-.013-.007a8.442,8.442,0,0,1-2.722-2.1A6.623,6.623,0,0,1,6.966,9.928c.042.026.085.048.128.072l.076.043c.089.047.18.092.273.132.071.031.145.058.218.085l.043.016a3.83,3.83,0,0,0,2.6,0l.043-.016c.073-.027.147-.053.218-.085.093-.04.183-.084.273-.132L10.909,10c.043-.024.087-.047.129-.073a6.625,6.625,0,0,1,4.334,4.543A8.451,8.451,0,0,1,12.65,16.569ZM5.7,6.6a3.3,3.3,0,1,1,5.1,2.766,3.178,3.178,0,0,1-.368.206l-.045.022a3.376,3.376,0,0,1-2.767,0l-.045-.022a3.154,3.154,0,0,1-.368-.206A3.3,3.3,0,0,1,5.7,6.6Zm10.121,7.3a7.23,7.23,0,0,0-4.215-4.4,3.9,3.9,0,1,0-5.21,0,7.231,7.231,0,0,0-4.215,4.4A8.4,8.4,0,1,1,17.4,9,8.354,8.354,0,0,1,15.822,13.9Z" stroke="currentColor" stroke-width="0.25"/>
      </g>
    </g>
  </g>
</svg>
