<svg xmlns="http://www.w3.org/2000/svg" width="24" height="24" viewBox="0 0 24 24">
  <g id="Group_28521" data-name="Group 28521" transform="translate(12592 11882)">
    <rect id="Rectangle_4528" data-name="Rectangle 4528" width="24" height="24" transform="translate(-12592 -11882)" fill="none"/>
    <g id="Group_28520" data-name="Group 28520" transform="translate(-12589 -11879)">
      <path id="Path_20468" data-name="Path 20468" d="M17.289,7.67l-.577-.385a.494.494,0,0,1-.168-.628l.307-.621a1.617,1.617,0,0,0-1.345-2.331l-.692-.045a.493.493,0,0,1-.459-.459L14.31,2.51a1.618,1.618,0,0,0-2.331-1.345l-.621.307A.494.494,0,0,1,10.73,1.3L10.345.727a1.609,1.609,0,0,0-2.691,0L7.27,1.3a.494.494,0,0,1-.628.168l-.621-.307A1.618,1.618,0,0,0,3.69,2.51L3.645,3.2a.493.493,0,0,1-.459.459l-.692.045A1.617,1.617,0,0,0,1.149,6.036l.307.622a.494.494,0,0,1-.168.628L.711,7.67a1.629,1.629,0,0,0,0,2.691l.577.385a.494.494,0,0,1,.168.628l-.307.621a1.617,1.617,0,0,0,1.345,2.331l.692.045a.493.493,0,0,1,.459.459l.045.692a1.618,1.618,0,0,0,2.331,1.345l.621-.307a.494.494,0,0,1,.628.168l.385.577a1.649,1.649,0,0,0,2.691,0l.385-.577a.494.494,0,0,1,.628-.168l.621.307a1.618,1.618,0,0,0,2.331-1.345l.045-.692a.493.493,0,0,1,.459-.459l.692-.045a1.617,1.617,0,0,0,1.345-2.331l-.307-.622a.494.494,0,0,1,.168-.628l.577-.385a1.629,1.629,0,0,0,0-2.691ZM16.9,9.776l-.577.385a1.2,1.2,0,0,0-.408,1.524l.307.622a.914.914,0,0,1-.76,1.317l-.692.045a1.2,1.2,0,0,0-1.116,1.116l-.045.692a.915.915,0,0,1-1.317.76l-.622-.307a1.2,1.2,0,0,0-1.524.409l-.385.577a.947.947,0,0,1-1.521,0l-.385-.577a1.2,1.2,0,0,0-1.524-.408l-.621.307a.9.9,0,0,1-.86-.027.914.914,0,0,1-.457-.733l-.045-.692a1.2,1.2,0,0,0-1.116-1.116l-.692-.045a.914.914,0,0,1-.76-1.317l.307-.622a1.2,1.2,0,0,0-.408-1.524L1.1,9.776a.926.926,0,0,1,0-1.521l.577-.385a1.2,1.2,0,0,0,.408-1.524l-.307-.622a.914.914,0,0,1,.76-1.317l.692-.045A1.2,1.2,0,0,0,4.347,3.247l.045-.692a.914.914,0,0,1,.457-.733.9.9,0,0,1,.86-.027l.622.307a1.2,1.2,0,0,0,1.524-.409l.385-.577a.906.906,0,0,1,1.521,0l.385.577a1.2,1.2,0,0,0,1.524.409l.622-.307a.9.9,0,0,1,.86.027.914.914,0,0,1,.457.733l.045.692a1.2,1.2,0,0,0,1.116,1.116l.692.045a.914.914,0,0,1,.761,1.317l-.307.622a1.2,1.2,0,0,0,.408,1.524l.577.385a.926.926,0,0,1,0,1.521Z" stroke="currentColor" stroke-width="0.2"/>
      <path id="Path_20469" data-name="Path 20469" d="M95.837,90a5.837,5.837,0,1,0,2.776,10.971.352.352,0,0,0-.335-.618,5.136,5.136,0,1,1,2.075-2.075.352.352,0,0,0,.618.335A5.836,5.836,0,0,0,95.837,90Z" transform="translate(-86.837 -86.837)" stroke="currentColor" stroke-width="0.2"/>
      <path id="Path_20470" data-name="Path 20470" d="M100.884,92.879a5.837,5.837,0,1,0-8,8.009.352.352,0,0,0,.359-.6,5.136,5.136,0,1,1,2.845.718.352.352,0,0,0,.029.7,5.836,5.836,0,0,0,4.762-8.824Z" transform="translate(-86.872 -86.872)" stroke="currentColor" stroke-width="0.2"/>
    </g>
  </g>
</svg>
