<svg viewBox="0 0 24 24">
  <path stroke="currentColor" stroke-width=".2" d="M18 3c-1.7 0-3 1.3-3 3s1.3 3 3 3 3-1.3 3-3c0 0 0 0 0 0 0-1.7-1.3-3-3-3zm0 5.3c-1.2 0-2.3-1-2.3-2.3 0-1.2 1-2.3 2.3-2.3 1.2 0 2.3 1 2.3 2.3 0 0 0 0 0 0-.1 1.3-1.1 2.3-2.3 2.3zm0 6.7c-1.7 0-3 1.3-3 3s1.3 3 3 3 3-1.3 3-3v0c0-1.7-1.3-3-3-3zm0 5.2c-1.2 0-2.3-1-2.3-2.3s1-2.3 2.3-2.3 2.3 1 2.3 2.3c-.1 1.3-1.1 2.3-2.3 2.3h0zM6 9c-1.7 0-3 1.3-3 3s1.3 3 3 3 3-1.3 3-3-1.3-3-3-3zm0 5.3c-1.2 0-2.3-1-2.3-2.3 0-1.2 1-2.3 2.3-2.3s2.3 1 2.3 2.3c0 1.2-1 2.3-2.3 2.3h0zM16 7c-.1-.2-.3-.3-.5-.2l-7.3 3.7c-.2.1-.3.3-.2.5.1.1.2.2.3.2h.2l7.3-3.7c.2-.1.3-.3.2-.5zm-.2 9.5l-7.3-3.7c-.2-.1-.4 0-.5.2-.1.2 0 .4.2.5l7.3 3.7c.2.1.4 0 .5-.2.1-.2 0-.4-.2-.5z"/>
</svg>